<?xml version="1.0" encoding="utf-8"?>
<!-- Generator: Adobe Illustrator 20.1.0, SVG Export Plug-In . SVG Version: 6.00 Build 0)  -->
<svg version="1.1" id="Calque_1" xmlns="http://www.w3.org/2000/svg" xmlns:xlink="http://www.w3.org/1999/xlink" x="0px" y="0px"
	 viewBox="0 0 492 492" style="enable-background:new 0 0 492 492;" xml:space="preserve">
<style type="text/css">
	.st0{fill:#FFFFFF;}
</style>
<g>
	<path class="st0" d="M73.4,369.5l28.1,28.2h-55v12.8h70.4l6.4-6.4v-70.4h-12.8v55l-27.2-27.2C28.5,288.2,36,184.1,100.9,119.2
		c35.1-35.1,81.7-54.4,131.2-54.4V52.1c-53,0-102.8,20.6-140.3,58.1C22.4,179.6,14.4,291.1,73.4,369.5L73.4,369.5z M73.4,369.5"/>
	<path class="st0" d="M375.6,116.1h54.9v-12.8h-70.4l-6.4,6.4v70.4h12.8v-55l27.2,27.2c54.8,73.3,47.3,177.4-17.5,242.2
		c-35.1,35.1-81.7,54.4-131.2,54.4v12.8c53,0,102.8-20.6,140.3-58.1c69.5-69.5,77.4-180.9,18.4-259.3L375.6,116.1z M375.6,116.1"/>
</g>
</svg>
