<?xml version="1.0" encoding="utf-8"?>
<!-- Generator: Adobe Illustrator 20.1.0, SVG Export Plug-In . SVG Version: 6.00 Build 0)  -->
<svg version="1.1" id="Calque_1" xmlns="http://www.w3.org/2000/svg" xmlns:xlink="http://www.w3.org/1999/xlink" x="0px" y="0px"
	 viewBox="0 0 394.4 409.6" style="enable-background:new 0 0 394.4 409.6;" xml:space="preserve">
<style type="text/css">
	.st0{clip-path:url(#SVGID_2_);fill:#FFFFFF;}
</style>
<g>
	<defs>
		<rect id="SVGID_1_" y="-0.3" width="394.8" height="410.9"/>
	</defs>
	<clipPath id="SVGID_2_">
		<use xlink:href="#SVGID_1_"  style="overflow:visible;"/>
	</clipPath>
	<path class="st0" d="M216.5,154.7h-46.4v-46.4c0-4.3-3.5-7.7-7.7-7.7c-4.3,0-7.7,3.5-7.7,7.7v46.4h-46.4c-4.3,0-7.7,3.5-7.7,7.7
		c0,4.3,3.5,7.7,7.7,7.7h46.4v46.4c0,4.3,3.5,7.7,7.7,7.7c4.3,0,7.7-3.5,7.7-7.7v-46.4h46.4c4.3,0,7.7-3.5,7.7-7.7
		C224.3,158.1,220.8,154.7,216.5,154.7L216.5,154.7z M216.5,154.7"/>
	<path class="st0" d="M392.2,396.5L277.3,277c29.3-29.4,47.5-69.9,47.5-114.6C324.8,72.8,251.9,0,162.4,0C72.8,0,0,72.8,0,162.4
		c0,89.6,72.8,162.4,162.4,162.4c39.3,0,75.4-14.1,103.5-37.4l115.2,119.8c1.5,1.6,3.5,2.4,5.6,2.4c1.9,0,3.9-0.7,5.4-2.2
		C395.1,404.5,395.2,399.6,392.2,396.5L392.2,396.5z M15.5,162.4c0-81,65.9-146.9,146.9-146.9c81,0,146.9,65.9,146.9,146.9
		c0,81-65.9,146.9-146.9,146.9C81.4,309.3,15.5,243.4,15.5,162.4L15.5,162.4z M15.5,162.4"/>
</g>
</svg>
