<?xml version="1.0" encoding="utf-8"?>
<!-- Generator: Adobe Illustrator 20.1.0, SVG Export Plug-In . SVG Version: 6.00 Build 0)  -->
<svg version="1.1" id="Calque_1" xmlns="http://www.w3.org/2000/svg" xmlns:xlink="http://www.w3.org/1999/xlink" x="0px" y="0px"
	 viewBox="0 0 2623.9 1734.2" style="enable-background:new 0 0 2623.9 1734.2;" xml:space="preserve">
<style type="text/css">
	.st0{fill:none;}
	.st1{fill:none;stroke:#FFFFFF;stroke-width:2;stroke-linecap:square;stroke-miterlimit:10;stroke-dasharray:5.01,40.04;}
</style>
<title>Fichier 10</title>
<g id="Calque_2">
	<g id="Calque_1-2">
		<rect class="st0" width="2621.5" height="1733.7"/>
		<path class="st1" d="M372,607.3c-78.4,39.2-170,55.5-227,124.4S56.9,888.6,39.3,975.3c-15.9,78.4-22.1,160.4-2.9,238
			c18.7,75.8,60.5,143.8,107.1,206.3c52.5,70.5,112.7,136.7,186.3,184.8c140.9,92,319.5,109.6,486.4,88.1s326.8-78.5,488.2-125.9
			s329.5-85.8,496.9-68.2c92.3,9.7,182.1,36.2,273.9,49.5s189.7,12.5,272.4-29.5c134-68,196.2-225.5,221-373.7
			c37-221.1,14-451.3-62.9-661.7c-33.3-91.1-74.9-231.2-171-265.8c-117.8-42.3-241.5-64.3-364.2-86.2l-489.3-87.3
			c-75.3-13.5-150.6-29.4-223.1-0.6c-78.6,31.2-153.1,75.3-224,120.3c-144.7,91.8-277.7,199.6-418.6,296.8
			C537.6,513.9,457.2,564.8,372,607.3z"/>
		<rect x="2.4" class="st0" width="2621.5" height="1734.2"/>
	</g>
</g>
</svg>
