<svg xmlns="http://www.w3.org/2000/svg" viewBox="0 0 2048.76 1378.97"><defs><style>.cls-1{fill:none;stroke:#fff;stroke-linecap:square;stroke-miterlimit:10;stroke-width:2px;stroke-dasharray:4.99 39.88;}</style></defs><title>Fichier 9</title><g id="Calque_2" data-name="Calque 2"><g id="Calque_1-2" data-name="Calque 1"><path class="cls-1" d="M1374.09,172.39c127.79,35.58,260.54,69.41,364.54,142.74C1833.47,382,1853.16,607.9,1895.84,707c68.9,160,179.24,231.32,145.74,406.31-9,47.21-26,95.64-62.59,126.81-22.5,19.16-50.6,30.23-78.14,41-45,17.56-90.22,35.15-137,47.14-115.41,29.54-236.39,24-355.52,23.68-149.54-.44-298.95,7.56-448.12,17.37-35.05,2.31-77,11.94-111.77,7.61-28.69-3.58-58.61-18.87-87.15-26.68-68.92-18.85-139.27-31.93-208.3-50.37-146.61-39.17-287-103.34-391.68-200.25S-9.28,870.61,2.32,738.48C12.64,620.85,81,513.92,140.85,407.9a2811.27,2811.27,0,0,0,130.93-262c24.86-57.21,34.1-104.06,107-125.86,98.35-29.43,217.69-18.81,319-7.75,108.76,11.88,215.57,34.44,320.64,61C1138,103.64,1255.53,139.37,1374.09,172.39Z"/></g></g></svg>