<svg xmlns="http://www.w3.org/2000/svg" viewBox="0 0 2563.44 1675.94"><defs><style>.cls-1{fill:none;stroke:#fff;stroke-linecap:square;stroke-miterlimit:10;stroke-width:2px;stroke-dasharray:5.01 40.04;}</style></defs><title>Fichier 12</title><g id="Calque_2" data-name="Calque 2"><g id="Calque_1-2" data-name="Calque 1"><path class="cls-1" d="M348.54,581.37c-78.4,39.15-170,55.45-227,124.43S33.4,862.65,15.83,949.43c-15.88,78.42-22.1,160.36-2.94,238,18.69,75.75,60.54,143.76,107.13,206.34,52.5,70.52,112.67,136.7,186.28,184.77,140.9,92,319.48,109.58,486.38,88.14s326.76-78.51,488.22-125.95,329.51-85.77,496.87-68.23c92.32,9.68,182.07,36.16,273.93,49.5s189.67,12.48,272.44-29.53c134-68,196.22-225.51,221-373.74,37-221.06,14-451.35-62.87-661.68-33.33-91.14-74.87-231.24-171-265.82C2193.55,148.95,2069.81,127,1947,105L1457.77,17.73c-75.34-13.45-150.62-29.42-223.1-.62-78.57,31.22-153.06,75.29-224,120.29C866,229.24,732.93,337,592.1,434.18,514.09,488,433.68,538.86,348.54,581.37Z"/></g></g></svg>