<svg xmlns="http://www.w3.org/2000/svg" viewBox="0 0 1846.17 1308.61"><defs><style>.cls-1{fill:none;stroke:#fff;stroke-linecap:square;stroke-miterlimit:10;stroke-width:2px;stroke-dasharray:5.01 40.09;}</style></defs><title>Fichier 11</title><g id="Calque_2" data-name="Calque 2"><g id="Calque_1-2" data-name="Calque 1"><path class="cls-1" d="M284.27,276.67c-44.43,157.45-76.78,319.05-139.7,470.06-38.38,92.11-87.94,179.76-118,274.91-16.74,53-27,108.74-25.36,164.43,1.6,54.66,14.93,81.23,67.55,105.55,36.67,16.95,78.67,16.48,119.06,15.7,106.84-2.08,212.74-6.14,318.65-21.12,94.72-13.4,190.71-86.09,265.8-142.84,51.41-38.85,100-81.89,155.91-114,128.75-74,338.11,35.06,475.1-22.33,105-44,142.48-233.69,232.4-303.45,64.18-49.79,130-101.46,170.15-172.09,49.6-87.3,45-115.84,26.11-214.47-22-114.92-157.28-261.7-269.85-293.93-163.53-46.82-354.61-4.78-521.59-3.84-215.15,1.21-434.7-41.6-642.86,12.83C346,45.56,350.68,76.94,334.82,119.93,315.79,171.48,299.19,223.79,284.27,276.67Z"/></g></g></svg>