<svg xmlns="http://www.w3.org/2000/svg" viewBox="0 0 1197.92 1349.8"><defs><style>.cls-1{fill:none;stroke:#fff;stroke-linecap:square;stroke-miterlimit:10;stroke-width:2px;stroke-dasharray:4.98 39.84;}</style></defs><title>Fichier 10</title><g id="Calque_2" data-name="Calque 2"><g id="Calque_1-2" data-name="Calque 1"><path class="cls-1" d="M373,73.82C476.86,15,599.59-3.92,718.7,2,776.34,4.93,833.55,13.42,890.05,25c49.52,10.12,100.32,30.13,151.1,30.65,31.53.32,57.45-7.41,86,10.32,37.1,23,61.35,69.49,67.63,111.58,9.21,61.73-12.66,124.89-47.41,176.74-31.47,46.94-73.66,87.18-96.66,138.8-15.37,34.52-21.34,72.44-25,110-9.46,96-5.08,192.64,1.21,288.69,5.48,83.59-30.49,165.26-56,245.75-23,72.74-30.27,128.11-108.89,163.74-43.34,19.65-93,17.45-140.52,15.62-158.32-6.11-317.78-4-473.84,23.39-31.2,5.47-63.09,12-94.27,6.39-82-14.65-62.18-75.53-45.75-135.22,17-61.67,41.88-127.79,28.93-192.63C110.2,886.65-49,811.3,16.83,693.81c65.67-117.18,120.55-225,151.75-356.18C195.35,225,273.2,130.25,373,73.82Z"/></g></g></svg>