<svg xmlns="http://www.w3.org/2000/svg" viewBox="0 0 2621.48 1733.65"><defs><style>.cls-1,.cls-4{fill:none;}.cls-2,.cls-3{fill:#fff;}.cls-2,.cls-3,.cls-4{stroke:#fff;stroke-miterlimit:10;}.cls-2{stroke-width:2.3px;}.cls-3,.cls-4{stroke-width:2px;}.cls-4{stroke-linecap:square;stroke-dasharray:4.98 39.84;}</style></defs><title>Fichier 13</title><g id="Calque_2" data-name="Calque 2"><g id="Calque_1-2" data-name="Calque 1"><rect class="cls-1" width="2621.48" height="1733.65"/><path class="cls-2" d="M1337.18,668.25"/><path class="cls-3" d="M1257.58,944.79"/><path class="cls-4" d="M1162,263.12c103.9-58.77,226.62-77.73,345.74-71.77,57.64,2.89,114.84,11.37,171.35,22.92,49.52,10.12,100.32,30.13,151.1,30.65,31.53.32,57.45-7.41,86,10.32,37.1,23,61.35,69.49,67.63,111.58,9.21,61.73-12.66,124.89-47.41,176.74-31.47,46.94-73.66,87.18-96.66,138.8-15.38,34.52-21.34,72.44-25,110-9.46,96-5.08,192.64,1.21,288.69,5.48,83.59-30.49,165.26-56,245.75-23,72.74-30.27,128.11-108.89,163.74-43.34,19.65-93,17.45-140.52,15.62-158.32-6.11-317.78-4-473.84,23.39-31.2,5.47-63.09,12-94.27,6.39-82-14.65-62.18-75.53-45.75-135.22,17-61.67,41.88-127.79,28.93-192.63C899.22,1076,740,1000.61,805.85,883.12c65.67-117.18,120.55-225,151.75-356.18C984.37,414.34,1062.21,319.56,1162,263.12Z"/></g></g></svg>