<svg xmlns="http://www.w3.org/2000/svg" viewBox="0 0 2621.48 1733.65"><defs><style>.cls-1,.cls-2{fill:none;}.cls-2,.cls-4,.cls-5{stroke:#fff;stroke-miterlimit:10;}.cls-2{stroke-linecap:square;stroke-dasharray:1 12;}.cls-2,.cls-5{stroke-width:2px;}.cls-3,.cls-4,.cls-5{fill:#fff;}.cls-4{stroke-width:2.3px;}</style></defs><title>Fichier 14</title><g id="Calque_2" data-name="Calque 2"><g id="Calque_1-2" data-name="Calque 1"><rect class="cls-1" width="2621.48" height="1733.65"/><path class="cls-2" d="M1308.75,634.57c3.88-3.49,5.42-4.9,8-7.06,5.55-4.69,12.75-7.4,19.72-9.09a76.83,76.83,0,0,1,13.73-1.38c10.3,0,13,.66,22.76,4.16a58.52,58.52,0,0,1,10,5.25,63.75,63.75,0,0,1,8.72,8c-1.86,4-4.8,7.27-6.54,9.69a49.09,49.09,0,0,1-9.43,9.87c-11.9,9.25-28,13.67-41.83,6-4.43-2.46-8.85-4.41-12.54-8-4.06-3.94-5.8-7.34-9.55-11.58A60,60,0,0,1,1308.75,634.57Z"/><path class="cls-3" d="M1357.37,632.28a4.91,4.91,0,0,0-.54-.2l-1.25-.37c-.41-.11-.79-.32-1.2-.45-.12,0-.23-.09-.34-.14s-.17,0-.26-.08-.13-.08-.2-.09a2.48,2.48,0,0,1-.28-.06,1.29,1.29,0,0,0-.4-.15h-.34c-.24,0-.42.11-.65.12a6.07,6.07,0,0,1-1.16,0,.7.7,0,0,0-.45,0,1.75,1.75,0,0,1-.42.12,7.06,7.06,0,0,0-1.2.46,8.43,8.43,0,0,0-5.47,9,11,11,0,0,0,1.59,4.13,15.88,15.88,0,0,0,1.95,2.7,3.58,3.58,0,0,0,2.55,1.51c1.94.35,3.76,1.11,5.71.41a13,13,0,0,0,4.2-2.28,7,7,0,0,0,2.57-5.47c0-.8,0-1.59,0-2.39,0-.27,0-.54,0-.82s0-.5,0-.75a2.23,2.23,0,0,0-.11-.57c0-.14,0-.27-.07-.41s-.08-.46-.14-.68a5,5,0,0,0-.41-.94,3.5,3.5,0,0,0-.49-.74,4.4,4.4,0,0,0-.46-.4,3.56,3.56,0,0,0-.46-.35l-.42-.27c-.16-.1-.34-.15-.5-.23C1358.26,632.73,1357.83,632.47,1357.37,632.28Z"/><path class="cls-4" d="M1337.18,668.25"/><path class="cls-5" d="M1257.58,944.79"/></g></g></svg>