<svg xmlns="http://www.w3.org/2000/svg" viewBox="0 0 2621.48 1733.65"><defs><style>.cls-1,.cls-3{fill:none;}.cls-2{fill:#fff;}.cls-2,.cls-3{stroke:#fff;stroke-miterlimit:10;stroke-width:2px;}.cls-3{stroke-linecap:square;stroke-dasharray:4.99 39.88;}</style></defs><title>Fichier 11</title><g id="Calque_2" data-name="Calque 2"><g id="Calque_1-2" data-name="Calque 1"><rect class="cls-1" width="2621.48" height="1733.65"/><path class="cls-2" d="M1257.58,944.79"/><path class="cls-3" d="M1679.87,359.52c127.79,35.58,260.54,69.41,364.54,142.74,94.84,66.86,114.54,292.78,157.21,391.87,68.89,160,179.24,231.32,145.74,406.31-9,47.21-26,95.64-62.59,126.81-22.5,19.16-50.6,30.23-78.14,41-45,17.56-90.22,35.15-137,47.14-115.41,29.54-236.39,24-355.52,23.68-149.54-.44-298.95,7.56-448.12,17.37-35.05,2.31-77,11.94-111.77,7.61-28.69-3.58-58.61-18.87-87.15-26.68-68.92-18.85-139.27-31.92-208.3-50.37-146.61-39.17-287-103.34-391.68-200.25s-170.54-229-158.94-361.09C318.42,808,386.73,701.06,446.63,595a2811.24,2811.24,0,0,0,130.93-262c24.86-57.21,34.11-104.06,107-125.86,98.35-29.43,217.69-18.81,319-7.75,108.76,11.88,215.57,34.44,320.64,61C1443.73,290.78,1561.3,326.51,1679.87,359.52Z"/></g></g></svg>