<svg xmlns="http://www.w3.org/2000/svg" viewBox="0 0 2621.48 1733.65"><defs><style>.cls-1,.cls-3{fill:none;}.cls-2{fill:#fff;}.cls-2,.cls-3{stroke:#fff;stroke-miterlimit:10;stroke-width:2px;}.cls-3{stroke-linecap:square;stroke-dasharray:5.01 40.09;}</style></defs><title>Fichier 12</title><g id="Calque_2" data-name="Calque 2"><g id="Calque_1-2" data-name="Calque 1"><rect class="cls-1" width="2621.48" height="1733.65"/><path class="cls-2" d="M1257.58,944.79"/><path class="cls-3" d="M764.65,481.79c-44.43,157.45-76.78,319.05-139.7,470.06-38.38,92.11-87.94,179.76-118,274.91-16.74,53-27,108.74-25.36,164.43,1.6,54.66,14.93,81.23,67.55,105.55,36.67,16.95,78.67,16.48,119.06,15.7,106.84-2.08,212.74-6.14,318.65-21.12,94.72-13.4,190.71-86.09,265.8-142.84,51.41-38.85,100-81.89,155.91-114,128.75-74,338.11,35.06,475.1-22.33,105-44,142.48-233.69,232.4-303.45,64.18-49.79,130-101.46,170.15-172.09,49.6-87.3,45-115.84,26.11-214.47-22-114.92-157.28-261.7-269.85-293.93-163.53-46.82-354.61-4.78-521.59-3.84-215.15,1.21-434.7-41.6-642.86,12.83-51.57,13.48-46.92,44.86-62.79,87.85C796.17,376.6,779.57,428.91,764.65,481.79Z"/></g></g></svg>